<svg width="400" height="100" viewBox="0 0 400 100" fill="none" xmlns="http://www.w3.org/2000/svg">
<path d="M40.8351 95.7359C39.5896 96.8363 37.8992 97.7075 35.7641 98.3494C33.6289 99.083 31.0934 99.4498 28.1575 99.4498C24.51 99.4498 21.3517 98.8996 18.6827 97.7992C16.0138 96.7905 14.2345 95.3232 13.3448 93.3975C12.3662 91.1967 11.2096 87.7121 9.87515 82.9436C8.62964 78.1751 7.38412 72.9482 6.13861 67.2627C4.89309 61.5773 3.69206 55.8001 2.53551 49.9312C1.46793 44.0624 0.622757 38.8812 0 34.3879C1.24551 33.1041 2.89137 32.0037 4.93758 31.0867C7.07275 30.0779 9.38585 29.5736 11.8769 29.5736C14.9907 29.5736 17.5262 30.3072 19.4834 31.7744C21.5296 33.1499 22.7751 35.58 23.22 39.0646C24.1096 46.0339 24.8658 51.8111 25.4886 56.3961C26.1113 60.8895 26.6006 64.6034 26.9565 67.5378C27.4013 70.3806 27.7127 72.5814 27.8906 74.1403C28.1575 75.6075 28.3799 76.7996 28.5579 77.7166H29.0917C29.3586 76.2494 29.8034 74.1403 30.4262 71.3893C31.1379 68.5465 31.9386 65.337 32.8282 61.7607C33.7179 58.1843 34.652 54.3329 35.6306 50.2063C36.6092 45.9881 37.5879 41.8157 38.5665 37.6891C40.3458 36.6804 42.0806 35.901 43.771 35.3508C45.5503 34.8005 47.7299 34.5254 50.3099 34.5254C53.4237 34.5254 56.0927 35.0298 58.3168 36.0385C60.5409 37.0472 61.9644 38.6061 62.5871 40.7153C63.6547 44.7501 64.6778 48.6933 65.6564 52.5447C66.635 56.3044 67.5247 59.8349 68.3254 63.1362C69.1261 66.3457 69.8378 69.2343 70.4606 71.8019C71.0833 74.2779 71.5281 76.2494 71.795 77.7166H72.4623C73.4409 70.6557 74.375 63.3196 75.2647 55.7084C76.2433 48.0972 77.133 40.3485 77.9337 32.4622C79.535 31.4535 81.2254 30.7199 83.0047 30.2613C84.784 29.8028 86.5633 29.5736 88.3426 29.5736C91.4564 29.5736 94.0364 30.2613 96.0826 31.6369C98.1288 33.0124 99.1519 35.3966 99.1519 38.7895C99.1519 40.2568 98.9295 42.4576 98.4846 45.392C98.0398 48.3265 97.4615 51.6277 96.7498 55.2957C96.0381 58.9638 95.1929 62.8152 94.2143 66.8501C93.3247 70.8849 92.3905 74.7822 91.4119 78.542C90.5222 82.3017 89.6326 85.6946 88.7429 88.7208C87.9423 91.7469 87.2305 94.0853 86.6078 95.7359C85.3623 96.8363 83.4495 97.7075 80.8695 98.3494C78.2895 99.083 75.5316 99.4498 72.5957 99.4498C65.1226 99.4498 60.7189 97.5241 59.3844 93.6726C58.8506 92.022 58.1833 89.9587 57.3827 87.4828C56.582 84.9152 55.7368 82.1183 54.8471 79.0922C53.9575 76.066 53.1123 72.9482 52.3116 69.7386C51.5109 66.4374 50.8437 63.2737 50.3099 60.2476C49.6871 63.4571 48.9309 66.8042 48.0413 70.2889C47.1516 73.6818 46.2175 77.0289 45.2389 80.3301C44.3492 83.5397 43.5041 86.52 42.7034 89.271C41.9027 91.9303 41.2799 94.0853 40.8351 95.7359Z" fill="#74D4FF"/>
<path d="M126.511 82.9436C128.023 82.9436 129.669 82.806 131.448 82.5309C133.317 82.1641 134.696 81.7056 135.585 81.1554V70.1513L125.977 70.9766C123.486 71.16 121.44 71.7102 119.838 72.6272C118.237 73.5442 117.436 74.9198 117.436 76.7538C117.436 78.5878 118.104 80.1009 119.438 81.293C120.862 82.3934 123.219 82.9436 126.511 82.9436ZM125.443 28.8858C130.247 28.8858 134.607 29.3902 138.521 30.3989C142.525 31.4076 145.905 32.9665 148.663 35.0756C151.51 37.0931 153.69 39.7066 155.202 42.9161C156.715 46.0339 157.471 49.7478 157.471 54.0578V84.8693C157.471 87.2535 156.804 89.2251 155.469 90.784C154.224 92.2513 152.711 93.5351 150.932 94.6355C145.149 98.2118 137.009 100 126.511 100C121.796 100 117.525 99.5415 113.7 98.6245C109.963 97.7075 106.716 96.332 103.958 94.4979C101.289 92.6639 99.1984 90.3255 97.686 87.4828C96.2626 84.6401 95.5509 81.3388 95.5509 77.5791C95.5509 71.2517 97.3747 66.3916 101.022 62.9986C104.67 59.6057 110.319 57.4966 117.97 56.6712L135.452 54.7455V53.7827C135.452 51.1233 134.295 49.2435 131.982 48.1431C129.758 46.9509 126.511 46.3549 122.24 46.3549C118.86 46.3549 115.568 46.7217 112.365 47.4553C109.163 48.1889 106.271 49.1059 103.691 50.2063C102.535 49.381 101.556 48.1431 100.755 46.4924C99.9547 44.7501 99.5543 42.9619 99.5543 41.1279C99.5543 38.7437 100.088 36.8638 101.156 35.4883C102.312 34.0211 104.047 32.7831 106.36 31.7744C108.94 30.7657 111.965 30.0321 115.435 29.5736C118.993 29.1151 122.329 28.8858 125.443 28.8858Z" fill="#74D4FF"/>
<path d="M160.132 12.3796C160.132 8.895 161.244 5.96057 163.469 3.57634C165.782 1.19211 168.807 0 172.543 0C176.28 0 179.26 1.19211 181.484 3.57634C183.797 5.96057 184.954 8.895 184.954 12.3796C184.954 15.8643 183.797 18.7987 181.484 21.1829C179.26 23.5672 176.28 24.7593 172.543 24.7593C168.807 24.7593 165.782 23.5672 163.469 21.1829C161.244 18.7987 160.132 15.8643 160.132 12.3796ZM183.886 97.6616C182.908 97.845 181.44 98.0743 179.482 98.3494C177.614 98.7162 175.701 98.8996 173.744 98.8996C171.787 98.8996 170.008 98.762 168.406 98.4869C166.894 98.2118 165.604 97.6616 164.536 96.8363C163.469 96.011 162.623 94.9106 162.001 93.5351C161.467 92.0679 161.2 90.188 161.2 87.8955V31.912C162.179 31.7286 163.602 31.4993 165.47 31.2242C167.428 30.8574 169.385 30.674 171.342 30.674C173.299 30.674 175.034 30.8116 176.547 31.0867C178.148 31.3618 179.482 31.912 180.55 32.7373C181.618 33.5626 182.418 34.7089 182.952 36.1761C183.575 37.5516 183.886 39.3856 183.886 41.6781V97.6616Z" fill="#74D4FF"/>
<path d="M231.024 96.011C229.778 97.0197 227.954 97.845 225.552 98.4869C223.15 99.1288 220.437 99.4498 217.412 99.4498C213.942 99.4498 210.917 98.9913 208.337 98.0743C205.846 97.1573 204.112 95.69 203.133 93.6726C202.332 92.1137 201.354 89.9587 200.197 87.2077C199.129 84.365 197.973 81.2471 196.727 77.8542C195.482 74.3695 194.192 70.6557 192.857 66.7125C191.523 62.7694 190.233 58.8721 188.987 55.0206C187.831 51.1692 186.763 47.4553 185.785 43.879C184.806 40.3026 184.005 37.1389 183.383 34.3879C184.628 33.1041 186.274 32.0037 188.32 31.0867C190.455 30.0779 192.768 29.5736 195.259 29.5736C198.373 29.5736 200.909 30.2613 202.866 31.6369C204.912 32.9207 206.425 35.3966 207.403 39.0646L212.608 60.11C213.586 64.2366 214.52 67.9963 215.41 71.3893C216.3 74.6905 216.967 77.2581 217.412 79.0922H218.079C219.769 72.3063 221.549 64.7868 223.417 56.5337C225.285 48.2806 226.976 40.1651 228.488 32.1871C230 31.3618 231.691 30.7199 233.559 30.2613C235.516 29.8028 237.385 29.5736 239.164 29.5736C242.278 29.5736 244.902 30.2613 247.037 31.6369C249.172 33.0124 250.24 35.3966 250.24 38.7895C250.24 40.2568 249.884 42.4117 249.172 45.2545C248.55 48.0055 247.705 51.1692 246.637 54.7455C245.658 58.2302 244.457 61.9441 243.034 65.8872C241.699 69.8304 240.32 73.6818 238.897 77.4415C237.474 81.2013 236.05 84.7318 234.627 88.033C233.292 91.2425 232.091 93.9019 231.024 96.011Z" fill="#74D4FF"/>
<path d="M283.34 100C278.091 100 273.198 99.2664 268.661 97.7992C264.213 96.2402 260.298 93.9477 256.918 90.9216C253.626 87.8955 251.001 84.0899 249.044 79.5048C247.176 74.9198 246.242 69.5553 246.242 63.4113C246.242 57.359 247.176 52.1779 249.044 47.868C251.001 43.4663 253.537 39.89 256.651 37.1389C259.765 34.2962 263.323 32.2329 267.327 30.9491C271.33 29.5736 275.422 28.8858 279.604 28.8858C284.319 28.8858 288.589 29.6194 292.415 31.0867C296.329 32.5539 299.666 34.5713 302.423 37.1389C305.27 39.7066 307.45 42.7785 308.962 46.3549C310.564 49.9312 311.365 53.8285 311.365 58.0468C311.365 61.1646 310.519 63.5488 308.829 65.1994C307.139 66.8501 304.781 67.9046 301.756 68.3631L268.795 73.4525C269.773 76.4787 271.775 78.7712 274.8 80.3301C277.825 81.7973 281.294 82.5309 285.209 82.5309C288.856 82.5309 292.281 82.0724 295.484 81.1554C298.776 80.1467 301.445 79.0005 303.491 77.7166C304.914 78.6337 306.116 79.9175 307.094 81.5681C308.073 83.2187 308.562 84.961 308.562 86.795C308.562 90.9216 306.694 93.9936 302.957 96.011C300.11 97.5699 296.908 98.6245 293.349 99.1747C289.79 99.7249 286.454 100 283.34 100ZM279.604 45.9422C277.469 45.9422 275.6 46.309 273.999 47.0426C272.487 47.7762 271.241 48.7391 270.262 49.9312C269.284 51.0316 268.528 52.3155 267.994 53.7827C267.549 55.1582 267.282 56.5796 267.193 58.0468L290.013 54.1953C289.746 52.3613 288.767 50.5273 287.077 48.6933C285.387 46.8592 282.896 45.9422 279.604 45.9422Z" fill="#74D4FF"/>
<path d="M334.295 97.6616C333.405 97.9367 331.982 98.2118 330.024 98.4869C328.156 98.762 326.199 98.8996 324.153 98.8996C322.195 98.8996 320.416 98.762 318.815 98.4869C317.302 98.2118 316.012 97.6616 314.945 96.8363C313.877 96.011 313.032 94.9106 312.409 93.5351C311.875 92.0679 311.608 90.188 311.608 87.8955V46.63C311.608 44.5209 311.964 42.7327 312.676 41.2655C313.477 39.7066 314.589 38.331 316.012 37.1389C317.436 35.9468 319.17 34.8923 321.217 33.9752C323.352 32.9665 325.62 32.0954 328.023 31.3618C330.425 30.6282 332.916 30.0779 335.496 29.7111C338.076 29.2526 340.656 29.0234 343.236 29.0234C347.506 29.0234 350.887 29.8945 353.378 31.6369C355.869 33.2875 357.114 36.0385 357.114 39.89C357.114 41.1738 356.936 42.4576 356.58 43.7414C356.225 44.9335 355.78 46.0339 355.246 47.0426C353.378 47.0426 351.465 47.1343 349.508 47.3177C347.55 47.5011 345.638 47.7762 343.769 48.1431C341.901 48.5099 340.122 48.9225 338.431 49.381C336.83 49.7478 335.451 50.2063 334.295 50.7565V97.6616Z" fill="#74D4FF"/>
<path d="M377.18 97.6616C376.291 97.9367 374.867 98.2118 372.91 98.4869C371.042 98.762 369.085 98.8996 367.038 98.8996C365.081 98.8996 363.302 98.762 361.7 98.4869C360.188 98.2118 358.898 97.6616 357.83 96.8363C356.763 96.011 355.918 94.9106 355.295 93.5351C354.761 92.0679 354.494 90.188 354.494 87.8955V46.63C354.494 44.5209 354.85 42.7327 355.562 41.2655C356.363 39.7066 357.475 38.331 358.898 37.1389C360.321 35.9468 362.056 34.8923 364.103 33.9752C366.238 32.9665 368.506 32.0954 370.908 31.3618C373.31 30.6282 375.801 30.0779 378.381 29.7111C380.961 29.2526 383.541 29.0234 386.121 29.0234C390.392 29.0234 393.772 29.8945 396.263 31.6369C398.755 33.2875 400 36.0385 400 39.89C400 41.1738 399.822 42.4576 399.466 43.7414C399.11 44.9335 398.666 46.0339 398.132 47.0426C396.263 47.0426 394.351 47.1343 392.393 47.3177C390.436 47.5011 388.523 47.7762 386.655 48.1431C384.787 48.5099 383.008 48.9225 381.317 49.381C379.716 49.7478 378.337 50.2063 377.18 50.7565V97.6616Z" fill="#74D4FF"/>
</svg>
